<svg xmlns="http://www.w3.org/2000/svg" viewBox="0 0 24 24" fill="currentColor">
  <!-- ???????????????? -->
  <path d="M8.5 2.5h7a1.5 1.5 0 0 1 1.5 1.5v3a1.5 1.5 0 0 1-1.5 1.5h-7A1.5 1.5 0 0 1 7 7V4a1.5 1.5 0 0 1 1.5-1.5z"/>
  <path d="M11.25 8.5h1.5v2.25h-1.5V8.5z"/>
  <path d="M5.5 10.75h13v1.5h-13v-1.5z"/>
  <path d="M3.5 14.5h6A1.5 1.5 0 0 1 11 16v3.5a1.5 1.5 0 0 1-1.5 1.5h-6A1.5 1.5 0 0 1 2 19.5V16a1.5 1.5 0 0 1 1.5-1.5z"/>
  <path d="M14.5 14.5h6A1.5 1.5 0 0 1 22 16v3.5a1.5 1.5 0 0 1-1.5 1.5h-6a1.5 1.5 0 0 1-1.5-1.5V16a1.5 1.5 0 0 1 1.5-1.5z"/>
  <path d="M6 12.25h1.5V14.5H6V12.25zm10.5 0H18V14.5h-1.5V12.25z"/>
</svg>
