<svg xmlns="http://www.w3.org/2000/svg" viewBox="0 0 24 24" fill="currentColor">
  <!-- ????????? + ?? -->
  <path d="M4 4.5A1.5 1.5 0 0 1 5.5 3h8A1.5 1.5 0 0 1 15 4.5V9a4.5 4.5 0 0 0-1.5.26V4.5h-8v15h6.1c.18.54.44 1.04.77 1.5H5.5A1.5 1.5 0 0 1 4 19.5v-15z"/>
  <path d="M6.5 7h6v1.4h-6V7zm0 3.2h4.5v1.4H6.5v-1.4zm0 3.2h3.5v1.4h-3.5v-1.4z"/>
  <path d="M18.12 11.05l.72-.42.95 1.64-.72.42c.05.28.08.56.08.85s-.03.57-.08.85l.72.42-.95 1.64-.72-.42a3.6 3.6 0 0 1-.95.55l.12 1.1h-1.9l.12-1.1c-.35-.14-.67-.33-.95-.55l-.72.42-.95-1.64.72-.42a3.7 3.7 0 0 1-.08-.85c0-.29.03-.57.08-.85l-.72-.42.95-1.64.72.42c.28-.22.6-.41.95-.55l-.12-1.1h1.9l-.12 1.1c.35.14.67.33.95.55zM16.75 15.4a1.65 1.65 0 1 0 0-3.3 1.65 1.65 0 0 0 0 3.3z"/>
</svg>
