<svg xmlns="http://www.w3.org/2000/svg" viewBox="0 0 24 24">
  <path fill="currentColor" d="M4 4.75A1.75 1.75 0 0 1 5.75 3h12.5A1.75 1.75 0 0 1 20 4.75V8.5a1.75 1.75 0 0 1-1.75 1.75H5.75A1.75 1.75 0 0 1 4 8.5V4.75zm2.25 1.5a.9.9 0 1 0 0 1.8.9.9 0 0 0 0-1.8zm3.1.25h7.4a.75.75 0 0 1 0 1.5h-7.4a.75.75 0 0 1 0-1.5zM4 12.25A1.75 1.75 0 0 1 5.75 10.5h12.5A1.75 1.75 0 0 1 20 12.25v3.75a1.75 1.75 0 0 1-1.75 1.75H5.75A1.75 1.75 0 0 1 4 16V12.25zm2.25 1.5a.9.9 0 1 0 0 1.8.9.9 0 0 0 0-1.8zm3.1.25h7.4a.75.75 0 0 1 0 1.5h-7.4a.75.75 0 0 1 0-1.5zM8 20.25a.75.75 0 0 1 .75-.75h6.5a.75.75 0 0 1 0 1.5h-6.5a.75.75 0 0 1-.75-.75z"/>
</svg>
