<svg xmlns="http://www.w3.org/2000/svg" viewBox="0 0 24 24">
  <path d="M11.25 2.5a.75.75 0 0 1 .75-.75h0a.75.75 0 0 1 .75.75v1.6a7.5 7.5 0 0 1 2.55.95l1.13-1.13a.75.75 0 1 1 1.06 1.06l-1.1 1.1a7.5 7.5 0 0 1 1.2 2.67h1.66a.75.75 0 0 1 0 1.5h-1.6a7.55 7.55 0 0 1-.95 2.55l1.13 1.13a.75.75 0 1 1-1.06 1.06l-1.1-1.1a7.5 7.5 0 0 1-2.67 1.2v1.66a.75.75 0 0 1-1.5 0v-1.6a7.5 7.5 0 0 1-2.55-.95l-1.13 1.13a.75.75 0 1 1-1.06-1.06l1.1-1.1a7.5 7.5 0 0 1-1.2-2.67H3.75a.75.75 0 0 1 0-1.5h1.6a7.55 7.55 0 0 1 .95-2.55L5.17 5.98a.75.75 0 1 1 1.06-1.06l1.1 1.1a7.5 7.5 0 0 1 2.67-1.2V2.5zM12 9a3 3 0 1 0 0 6 3 3 0 0 0 0-6z"/>
</svg>
