<svg xmlns="http://www.w3.org/2000/svg" viewBox="0 0 24 24">
  <!-- 齿轮：系统管理 -->
  <path d="M19.4 13a7.6 7.6 0 0 0 .06-1l1.7-1.33a.5.5 0 0 0 .12-.64l-1.6-2.78a.5.5 0 0 0-.6-.22l-2 .8a7.3 7.3 0 0 0-1.74-1l-.27-2.14a.5.5 0 0 0-.5-.42h-3.2a.5.5 0 0 0-.5.42l-.27 2.14c-.62.24-1.2.57-1.74 1l-2-.8a.5.5 0 0 0-.6.22L2.72 9.03a.5.5 0 0 0 .12.64L4.54 11c-.04.33-.06.66-.06 1s.02.67.06 1l-1.7 1.33a.5.5 0 0 0-.12.64l1.6 2.78a.5.5 0 0 0 .6.22l2-.8c.54.43 1.12.76 1.74 1l.27 2.14a.5.5 0 0 0 .5.42h3.2a.5.5 0 0 0 .5-.42l.27-2.14c.62-.24 1.2-.57 1.74-1l2 .8a.5.5 0 0 0 .6-.22l1.6-2.78a.5.5 0 0 0-.12-.64L19.46 13zM12 15.25A3.25 3.25 0 1 1 12 8.75a3.25 3.25 0 0 1 0 6.5z"/>
</svg>
