<?xml version="1.0" standalone="no"?><!DOCTYPE svg PUBLIC "-//W3C//DTD SVG 1.1//EN" "http://www.w3.org/Graphics/SVG/1.1/DTD/svg11.dtd"><svg t="1743060304117" class="icon" viewBox="0 0 1024 1024" version="1.1" xmlns="http://www.w3.org/2000/svg" p-id="45092" xmlns:xlink="http://www.w3.org/1999/xlink"><path fill-rule="evenodd" d="M868 96H156c-33.1 0-60 26.9-60 60v712c0 33.1 26.9 60 60 60h712c33.1 0 60-26.9 60-60V156c0-33.1-26.9-60-60-60zM512 268c134.8 0 244 109.2 244 244s-109.2 244-244 244-244-109.2-244-244 109.2-244 244-244zm0 110c-74 0-134 60-134 134s60 134 134 134 134-60 134-134-60-134-134-134z" p-id="45093"></path></svg>
