<svg xmlns="http://www.w3.org/2000/svg" viewBox="0 0 24 24">
  <!-- 枪机 + 网络波：ONVIF 网络摄像机互通意象 -->
  <path d="M3.5 8.25A2.25 2.25 0 0 1 5.75 6h8A2.25 2.25 0 0 1 16 8.25v7.5A2.25 2.25 0 0 1 13.75 18h-8A2.25 2.25 0 0 1 3.5 15.75v-7.5z"/>
  <path d="M17.25 9.4l2.7-1.8a.9.9 0 0 1 1.4.75v7.3a.9.9 0 0 1-1.4.75l-2.7-1.8V9.4z"/>
  <path d="M8.4 20.2a.75.75 0 0 1 .1-1.05 4.75 4.75 0 0 1 6 0 .75.75 0 1 1-.95 1.16 3.25 3.25 0 0 0-4.1 0 .75.75 0 0 1-1.05-.11z"/>
  <path d="M6.85 21.55a.75.75 0 0 1 .15-1.05 6.9 6.9 0 0 1 8.9 0 .75.75 0 1 1-.9 1.2 5.4 5.4 0 0 0-7.1 0 .75.75 0 0 1-1.05-.15z"/>
</svg>
