<svg xmlns="http://www.w3.org/2000/svg" viewBox="0 0 24 24">
  <!-- 实时日志：终端滚动输出 -->
  <path fill="currentColor" d="M3.75 3.5A1.75 1.75 0 0 0 2 5.25v13.5c0 .97.78 1.75 1.75 1.75h16.5A1.75 1.75 0 0 0 22 18.75V5.25c0-.97-.78-1.75-1.75-1.75H3.75zM6.2 8.1a.75.75 0 0 1 1.06.04l2.1 2.25-2.1 2.25a.75.75 0 1 1-1.1-1.02L7.48 10.4 6.16 9.12A.75.75 0 0 1 6.2 8.1zm4.55 3.55a.75.75 0 0 1 .75-.75h5.8a.75.75 0 0 1 0 1.5h-5.8a.75.75 0 0 1-.75-.75zm-3.1 3.6a.75.75 0 0 1 .75-.75H17a.75.75 0 0 1 0 1.5H8.4a.75.75 0 0 1-.75-.75z"/>
</svg>
